%
M48
M72
T01C0.03150
T02C0.03200
T03C0.03937
T04C0.04000
T05C0.09055
T06C0.11024
T07C0.12598
T08C0.13780
T09C0.15748
%
T01
X370072Y115941
X370072Y135941
X370072Y155941
X370072Y175941
T02
X325072Y180941
X315072Y180941
X305072Y180941
X295072Y180941
X285072Y180941
X275072Y180941
X265072Y180941
X265072Y170941
X255072Y180941
X245072Y180941
X245072Y170941
X235072Y180941
X225072Y180941
X215072Y180941
X205072Y180941
X195072Y180941
X195072Y210941
X205072Y210941
X215072Y210941
X225072Y210941
X235072Y210941
X245072Y210941
X255072Y210941
X265072Y210941
X275072Y210941
X285072Y210941
X295072Y210941
X305072Y210941
X315072Y210941
X325072Y210941
X275072Y220941
X255072Y220941
X244572Y230941
X245072Y245941
X245072Y255941
X225072Y255941
X225072Y245941
X225572Y230941
X165072Y180941
X155072Y180941
X145072Y180941
X135072Y180941
X125072Y180941
X115072Y180941
X105072Y180941
X105072Y190932
X95072Y190932
X95072Y180941
X85072Y180941
X75072Y180941
X65072Y180941
X55072Y180941
X45072Y180941
X35072Y180941
X55572Y200941
X55072Y215941
X55072Y225941
X75072Y225941
X75072Y215941
X74572Y200941
X75072Y150941
X65072Y150941
X55072Y150941
X45072Y150941
X35072Y150941
X85072Y150941
X95072Y150941
X105072Y150941
X115072Y150941
X125072Y150941
X135072Y150941
X145072Y150941
X155072Y150941
X165072Y150941
X105072Y140941
X85072Y140941
X345072Y115941
X345072Y95941
T03
X51322Y59691
X60072Y59691
X70072Y75941
X70072Y75941
X80072Y75941
X80072Y75941
X90072Y75941
X90072Y75941
X100072Y92191
X115072Y90941
X115072Y100941
X115072Y110941
X115072Y120941
X105072Y140941
X105072Y150941
X115072Y150941
X125072Y150941
X135072Y150941
X145072Y150941
X155072Y150941
X165072Y150941
X185072Y170941
X195072Y170941
X205072Y170941
X215072Y170941
X215072Y180941
X225072Y180941
X235072Y180941
X245072Y180941
X245072Y170941
X255072Y170941
X265072Y170941
X265072Y180941
X275072Y180941
X285072Y180941
X295072Y180941
X305072Y180941
X315072Y180941
X325072Y180941
X335072Y190941
X345072Y185941
X345072Y175941
X370072Y175941
X370072Y175941
X370072Y155941
X355072Y149691
X370072Y135941
X370072Y135941
X370072Y115941
X370072Y115941
X345072Y115941
X345072Y105941
X345072Y95941
X348822Y85941
X340072Y75941
X340072Y75941
X330072Y75941
X330072Y75941
X320072Y75941
X320072Y75941
X315072Y90941
X315072Y100941
X315072Y110941
X315072Y120941
X300072Y94691
X290072Y75941
X290072Y75941
X280072Y75941
X280072Y75941
X270072Y75941
X270072Y75941
X275072Y90941
X275072Y100941
X275072Y110941
X275072Y120941
X253822Y100941
X235072Y100941
X235072Y110941
X235072Y120941
X210072Y100941
X195072Y100941
X195072Y110941
X195072Y120941
X170072Y100941
X155072Y100941
X155072Y110941
X155072Y120941
X155072Y90941
X140072Y75941
X140072Y75941
X130072Y75941
X130072Y75941
X120072Y75941
X120072Y75941
X100072Y59691
X75072Y90941
X75072Y100941
X75072Y110941
X75072Y120941
X85072Y140941
X95072Y140941
X95072Y150941
X85072Y150941
X75072Y150941
X65072Y150941
X55072Y150941
X45072Y150941
X45072Y140941
X35072Y140941
X35072Y150941
X35072Y180941
X45072Y180941
X55072Y180941
X65072Y180941
X75072Y180941
X85072Y180941
X95072Y180941
X105072Y180941
X115072Y180941
X125072Y180941
X105072Y190941
X95072Y190941
X74568Y200916
X75072Y215941
X75072Y225941
X90063Y236391
X90063Y246391
X90063Y256391
X100063Y256391
X110135Y256496
X120063Y256391
X94000Y226391
X100063Y216391
X110063Y216391
X120085Y218371
X153804Y250720
X163804Y245720
X163804Y255720
X176304Y245720
X185072Y249066
X196304Y255720
X225072Y255941
X225072Y245941
X225505Y230871
X244571Y230953
X255072Y220941
X265072Y220941
X275072Y220941
X285072Y220941
X285072Y210941
X295072Y210941
X305072Y210941
X315072Y210941
X325072Y210941
X345072Y205941
X355072Y200941
X355072Y235941
X345072Y245941
X335072Y245941
X275072Y210941
X265072Y210941
X255072Y210941
X245072Y210941
X235072Y210941
X225072Y210941
X205072Y210941
X195072Y210941
X185064Y215923
X189910Y226087
X199910Y226087
X185072Y200941
X195072Y180941
X205072Y180941
X165072Y180941
X155072Y180941
X195072Y90941
X190072Y75941
X190072Y75941
X180072Y75941
X180072Y75941
X170072Y75941
X170072Y75941
X158822Y59691
X210072Y59691
X220072Y75941
X220072Y75941
X230072Y75941
X230072Y75941
X240072Y75941
X240072Y75941
X235072Y90941
X253822Y59691
X300072Y59691
X353822Y59691
X370072Y75941
X370072Y75941
X380072Y75941
X380072Y75941
X390072Y75941
X390072Y75941
X315072Y149691
X315072Y158441
X315072Y168441
X255072Y180941
X265072Y235941
X245072Y245941
X245072Y255941
X395072Y235941
X395072Y225941
X405072Y225941
X415072Y225941
X415072Y210941
X405072Y210941
X395072Y210941
X395072Y200941
X395072Y179691
X400072Y170941
X60072Y92191
X50072Y100941
X35072Y100941
X35072Y110941
X35072Y120941
X35072Y90941
X40072Y75941
X40072Y75941
X30072Y75941
X30072Y75941
X20072Y75941
X20072Y75941
X55561Y200941
X55072Y215941
X55072Y225941
T04
X75072Y110941
X75072Y100941
X75072Y90941
X35072Y90941
X35072Y100941
X35072Y110941
X115072Y110941
X115072Y100941
X115072Y90941
X155072Y90941
X155072Y100941
X155072Y110941
X195072Y110941
X195072Y100941
X195072Y90941
X235072Y90941
X235072Y100941
X235072Y110941
X275072Y110941
X275072Y100941
X275072Y90941
X315072Y90941
X315072Y100941
X315072Y110941
T05
X380072Y105941
X380072Y185941
T06
X60707Y243642
T07
X50072Y113441
X90072Y113441
X130072Y113441
X170072Y113441
X210072Y113441
X250072Y113441
X290072Y113441
X330072Y113441
T08
X288207Y167392
X229457Y167392
X126957Y194892
T09
X204457Y243642
X288207Y233642
X410072Y165941
X410072Y125941
M30
