%
M48
M72
T01C0.03150
T02C0.03543
T03C0.03937
T04C0.06299
T05C0.08661
T06C0.09055
T07C0.09449
T08C0.10630
T09C0.12598
T10C0.13386
T11C0.13780
T12C0.15748
T13C0.20472
%
T01
X202410Y225329
X208244Y225311
T02
X47572Y224021
X47572Y241344
T03
X63822Y58932
X72572Y58932
X82572Y75182
X92572Y75182
X102572Y75182
X112572Y58932
X132572Y75182
X142572Y75182
X152572Y75182
X167572Y90182
X167572Y100182
X167572Y110182
X167572Y120182
X182572Y100182
X182572Y75182
X192572Y75182
X202572Y75182
X207572Y90182
X207572Y100182
X207572Y110182
X207572Y120182
X222572Y100182
X247572Y100182
X247572Y90182
X252572Y75182
X242572Y75182
X232572Y75182
X222572Y58932
X266322Y58932
X282572Y75182
X292572Y75182
X302572Y75182
X312572Y58932
X332572Y75182
X342572Y75182
X352572Y75182
X361322Y85182
X357572Y95182
X357572Y105182
X357572Y115182
X370072Y115182
X355072Y127682
X370072Y135182
X362572Y148932
X370072Y155182
X370072Y175182
X355072Y175182
X355072Y185182
X362572Y195182
X355072Y205182
X342572Y210182
X332572Y225182
X322572Y210182
X312572Y210182
X302572Y210182
X292572Y210182
X282572Y210182
X272572Y210182
X262572Y210182
X252572Y210182
X242572Y210182
X232572Y210182
X222572Y210182
X212572Y210182
X202572Y200182
X197564Y215165
X208822Y242682
X218822Y242682
X223822Y232682
X243005Y230112
X242572Y245182
X242572Y255182
X262572Y255182
X262572Y245182
X262071Y230194
X272572Y220182
X282572Y220182
X292572Y220182
X302572Y180182
X312572Y170182
X322572Y180182
X332572Y180182
X342572Y180182
X327572Y167682
X327572Y157682
X327572Y148932
X327572Y120182
X327572Y110182
X327572Y100182
X327572Y90182
X312572Y93932
X287572Y90182
X287572Y100182
X287572Y110182
X287572Y120182
X266322Y100182
X247572Y110182
X247572Y120182
X262572Y170182
X272572Y170182
X282572Y170182
X282572Y180182
X272572Y180182
X262572Y180182
X252572Y180182
X242572Y180182
X232572Y180182
X232572Y170182
X222572Y170182
X212572Y170182
X212572Y180182
X222572Y180182
X202572Y170182
X177572Y180182
X167572Y180182
X157572Y180182
X137572Y180182
X117572Y180182
X107572Y180182
X97572Y180182
X87572Y180182
X77572Y180182
X67572Y180182
X57572Y180182
X47572Y180182
X68061Y200182
X76255Y215408
X84302Y221798
X95072Y225182
X95072Y215182
X87068Y200157
X107572Y190182
X117572Y190182
X122563Y215632
X112563Y215632
X132585Y217612
X166304Y249962
X176304Y254962
X176304Y244962
X188804Y244962
X208804Y254962
X132563Y255632
X122635Y255737
X112563Y255632
X107572Y150182
X107572Y140182
X117572Y140182
X117572Y150182
X127572Y150182
X137572Y150182
X147572Y150182
X157572Y150182
X167572Y150182
X177572Y150182
X127572Y120182
X127572Y110182
X127572Y100182
X127572Y90182
X112572Y91432
X87572Y90182
X87572Y100182
X87572Y110182
X87572Y120182
X97572Y140182
X97572Y150182
X87572Y150182
X77572Y150182
X67572Y150182
X57572Y150182
X57572Y140182
X47572Y140182
X47572Y150182
X47572Y120182
X47572Y110182
X47572Y100182
X47572Y90182
X52572Y75182
X42572Y75182
X32572Y75182
X62572Y100182
X72572Y91432
X171322Y58932
X332572Y245182
X355072Y245182
X362572Y223932
X382572Y233932
X392572Y233932
X392572Y205182
X382572Y205182
X400072Y180182
X411322Y180182
X402572Y75182
X392572Y75182
X382572Y75182
X366322Y58932
T04
X370072Y135182
X370072Y155182
X370072Y175182
T05
X247106Y169965
T06
X380072Y185182
X380072Y105182
T07
X230291Y249663
T08
X302427Y166556
X58677Y169056
T09
X62572Y112682
X102572Y112682
X142572Y112682
X182572Y112682
X222572Y112682
X262572Y112682
X302572Y112682
X342572Y115182
T10
X257511Y195136
T11
X139457Y194134
T12
X410072Y165182
X410072Y125182
T13
X311254Y228657
M30
