G75*
%MOIN*%
%OFA0B0*%
%FSLAX25Y25*%
%IPPOS*%
%LPD*%
%AMOC8*
5,1,8,0,0,1.08239X$1,22.5*
%
%ADD10C,0.01600*%
%ADD11OC8,0.06300*%
%ADD12C,0.05200*%
%ADD13C,0.06000*%
%ADD14C,0.01260*%
%ADD15C,0.05937*%
%ADD16R,0.05150X0.05150*%
%ADD17C,0.05200*%
D10*
X0156784Y0434533D02*
X0156800Y0435862D01*
X0156849Y0437189D01*
X0156931Y0438515D01*
X0157045Y0439839D01*
X0157191Y0441160D01*
X0157370Y0442476D01*
X0157581Y0443788D01*
X0157824Y0445094D01*
X0158099Y0446394D01*
X0158406Y0447686D01*
X0158745Y0448971D01*
X0159115Y0450247D01*
X0159516Y0451514D01*
X0159948Y0452770D01*
X0160411Y0454016D01*
X0160905Y0455249D01*
X0161428Y0456470D01*
X0161981Y0457678D01*
X0162564Y0458872D01*
X0163176Y0460052D01*
X0163817Y0461216D01*
X0164486Y0462363D01*
X0165183Y0463495D01*
X0165907Y0464608D01*
X0166659Y0465704D01*
X0167437Y0466781D01*
X0168242Y0467838D01*
X0169072Y0468875D01*
X0169927Y0469892D01*
X0170807Y0470887D01*
X0171712Y0471861D01*
X0172639Y0472812D01*
X0173590Y0473739D01*
X0174564Y0474644D01*
X0175559Y0475524D01*
X0176576Y0476379D01*
X0177613Y0477209D01*
X0178670Y0478014D01*
X0179747Y0478792D01*
X0180843Y0479544D01*
X0181956Y0480268D01*
X0183088Y0480965D01*
X0184235Y0481634D01*
X0185399Y0482275D01*
X0186579Y0482887D01*
X0187773Y0483470D01*
X0188981Y0484023D01*
X0190202Y0484546D01*
X0191435Y0485040D01*
X0192681Y0485503D01*
X0193937Y0485935D01*
X0195204Y0486336D01*
X0196480Y0486706D01*
X0197765Y0487045D01*
X0199057Y0487352D01*
X0200357Y0487627D01*
X0201663Y0487870D01*
X0202975Y0488081D01*
X0204291Y0488260D01*
X0205612Y0488406D01*
X0206936Y0488520D01*
X0208262Y0488602D01*
X0209589Y0488651D01*
X0210918Y0488667D01*
X0212247Y0488651D01*
X0213574Y0488602D01*
X0214900Y0488520D01*
X0216224Y0488406D01*
X0217545Y0488260D01*
X0218861Y0488081D01*
X0220173Y0487870D01*
X0221479Y0487627D01*
X0222779Y0487352D01*
X0224071Y0487045D01*
X0225356Y0486706D01*
X0226632Y0486336D01*
X0227899Y0485935D01*
X0229155Y0485503D01*
X0230401Y0485040D01*
X0231634Y0484546D01*
X0232855Y0484023D01*
X0234063Y0483470D01*
X0235257Y0482887D01*
X0236437Y0482275D01*
X0237601Y0481634D01*
X0238748Y0480965D01*
X0239880Y0480268D01*
X0240993Y0479544D01*
X0242089Y0478792D01*
X0243166Y0478014D01*
X0244223Y0477209D01*
X0245260Y0476379D01*
X0246277Y0475524D01*
X0247272Y0474644D01*
X0248246Y0473739D01*
X0249197Y0472812D01*
X0250124Y0471861D01*
X0251029Y0470887D01*
X0251909Y0469892D01*
X0252764Y0468875D01*
X0253594Y0467838D01*
X0254399Y0466781D01*
X0255177Y0465704D01*
X0255929Y0464608D01*
X0256653Y0463495D01*
X0257350Y0462363D01*
X0258019Y0461216D01*
X0258660Y0460052D01*
X0259272Y0458872D01*
X0259855Y0457678D01*
X0260408Y0456470D01*
X0260931Y0455249D01*
X0261425Y0454016D01*
X0261888Y0452770D01*
X0262320Y0451514D01*
X0262721Y0450247D01*
X0263091Y0448971D01*
X0263430Y0447686D01*
X0263737Y0446394D01*
X0264012Y0445094D01*
X0264255Y0443788D01*
X0264466Y0442476D01*
X0264645Y0441160D01*
X0264791Y0439839D01*
X0264905Y0438515D01*
X0264987Y0437189D01*
X0265036Y0435862D01*
X0265052Y0434533D01*
X0265036Y0433204D01*
X0264987Y0431877D01*
X0264905Y0430551D01*
X0264791Y0429227D01*
X0264645Y0427906D01*
X0264466Y0426590D01*
X0264255Y0425278D01*
X0264012Y0423972D01*
X0263737Y0422672D01*
X0263430Y0421380D01*
X0263091Y0420095D01*
X0262721Y0418819D01*
X0262320Y0417552D01*
X0261888Y0416296D01*
X0261425Y0415050D01*
X0260931Y0413817D01*
X0260408Y0412596D01*
X0259855Y0411388D01*
X0259272Y0410194D01*
X0258660Y0409014D01*
X0258019Y0407850D01*
X0257350Y0406703D01*
X0256653Y0405571D01*
X0255929Y0404458D01*
X0255177Y0403362D01*
X0254399Y0402285D01*
X0253594Y0401228D01*
X0252764Y0400191D01*
X0251909Y0399174D01*
X0251029Y0398179D01*
X0250124Y0397205D01*
X0249197Y0396254D01*
X0248246Y0395327D01*
X0247272Y0394422D01*
X0246277Y0393542D01*
X0245260Y0392687D01*
X0244223Y0391857D01*
X0243166Y0391052D01*
X0242089Y0390274D01*
X0240993Y0389522D01*
X0239880Y0388798D01*
X0238748Y0388101D01*
X0237601Y0387432D01*
X0236437Y0386791D01*
X0235257Y0386179D01*
X0234063Y0385596D01*
X0232855Y0385043D01*
X0231634Y0384520D01*
X0230401Y0384026D01*
X0229155Y0383563D01*
X0227899Y0383131D01*
X0226632Y0382730D01*
X0225356Y0382360D01*
X0224071Y0382021D01*
X0222779Y0381714D01*
X0221479Y0381439D01*
X0220173Y0381196D01*
X0218861Y0380985D01*
X0217545Y0380806D01*
X0216224Y0380660D01*
X0214900Y0380546D01*
X0213574Y0380464D01*
X0212247Y0380415D01*
X0210918Y0380399D01*
X0209589Y0380415D01*
X0208262Y0380464D01*
X0206936Y0380546D01*
X0205612Y0380660D01*
X0204291Y0380806D01*
X0202975Y0380985D01*
X0201663Y0381196D01*
X0200357Y0381439D01*
X0199057Y0381714D01*
X0197765Y0382021D01*
X0196480Y0382360D01*
X0195204Y0382730D01*
X0193937Y0383131D01*
X0192681Y0383563D01*
X0191435Y0384026D01*
X0190202Y0384520D01*
X0188981Y0385043D01*
X0187773Y0385596D01*
X0186579Y0386179D01*
X0185399Y0386791D01*
X0184235Y0387432D01*
X0183088Y0388101D01*
X0181956Y0388798D01*
X0180843Y0389522D01*
X0179747Y0390274D01*
X0178670Y0391052D01*
X0177613Y0391857D01*
X0176576Y0392687D01*
X0175559Y0393542D01*
X0174564Y0394422D01*
X0173590Y0395327D01*
X0172639Y0396254D01*
X0171712Y0397205D01*
X0170807Y0398179D01*
X0169927Y0399174D01*
X0169072Y0400191D01*
X0168242Y0401228D01*
X0167437Y0402285D01*
X0166659Y0403362D01*
X0165907Y0404458D01*
X0165183Y0405571D01*
X0164486Y0406703D01*
X0163817Y0407850D01*
X0163176Y0409014D01*
X0162564Y0410194D01*
X0161981Y0411388D01*
X0161428Y0412596D01*
X0160905Y0413817D01*
X0160411Y0415050D01*
X0159948Y0416296D01*
X0159516Y0417552D01*
X0159115Y0418819D01*
X0158745Y0420095D01*
X0158406Y0421380D01*
X0158099Y0422672D01*
X0157824Y0423972D01*
X0157581Y0425278D01*
X0157370Y0426590D01*
X0157191Y0427906D01*
X0157045Y0429227D01*
X0156931Y0430551D01*
X0156849Y0431877D01*
X0156800Y0433204D01*
X0156784Y0434533D01*
D11*
X0242572Y0255182D03*
X0242572Y0245182D03*
X0262572Y0245182D03*
X0262572Y0255182D03*
X0272572Y0220182D03*
X0292572Y0220182D03*
X0282572Y0170182D03*
X0262572Y0170182D03*
X0357572Y0115182D03*
X0357572Y0095182D03*
X0117572Y0140182D03*
X0097572Y0140182D03*
X0107572Y0190173D03*
X0117572Y0190173D03*
X0095072Y0215182D03*
X0095072Y0225182D03*
D12*
X0087072Y0200182D03*
X0068072Y0200182D03*
X0243072Y0230182D03*
X0262072Y0230182D03*
D13*
X0250572Y0110182D02*
X0244572Y0110182D01*
X0244572Y0100182D02*
X0250572Y0100182D01*
X0250572Y0090182D02*
X0244572Y0090182D01*
X0210572Y0090182D02*
X0204572Y0090182D01*
X0204572Y0100182D02*
X0210572Y0100182D01*
X0210572Y0110182D02*
X0204572Y0110182D01*
X0170572Y0110182D02*
X0164572Y0110182D01*
X0164572Y0100182D02*
X0170572Y0100182D01*
X0170572Y0090182D02*
X0164572Y0090182D01*
X0130572Y0090182D02*
X0124572Y0090182D01*
X0124572Y0100182D02*
X0130572Y0100182D01*
X0130572Y0110182D02*
X0124572Y0110182D01*
X0090572Y0110182D02*
X0084572Y0110182D01*
X0084572Y0100182D02*
X0090572Y0100182D01*
X0090572Y0090182D02*
X0084572Y0090182D01*
X0050572Y0090182D02*
X0044572Y0090182D01*
X0044572Y0100182D02*
X0050572Y0100182D01*
X0050572Y0110182D02*
X0044572Y0110182D01*
X0284572Y0110182D02*
X0290572Y0110182D01*
X0290572Y0100182D02*
X0284572Y0100182D01*
X0284572Y0090182D02*
X0290572Y0090182D01*
X0324572Y0090182D02*
X0330572Y0090182D01*
X0330572Y0100182D02*
X0324572Y0100182D01*
X0324572Y0110182D02*
X0330572Y0110182D01*
X0382572Y0202182D02*
X0382572Y0208182D01*
X0392572Y0208182D02*
X0392572Y0202182D01*
X0392572Y0230932D02*
X0392572Y0236932D01*
X0382572Y0236932D02*
X0382572Y0230932D01*
D14*
X0086140Y0222057D02*
X0086770Y0222687D01*
X0086566Y0220609D01*
X0084954Y0219285D01*
X0082876Y0219489D01*
X0081552Y0221101D01*
X0081756Y0223179D01*
X0083368Y0224503D01*
X0085446Y0224299D01*
X0086770Y0222687D01*
X0085791Y0222389D01*
X0085664Y0221091D01*
X0084656Y0220264D01*
X0083358Y0220391D01*
X0082531Y0221399D01*
X0082658Y0222697D01*
X0083666Y0223524D01*
X0084964Y0223397D01*
X0085791Y0222389D01*
X0084812Y0222092D01*
X0084761Y0221573D01*
X0084359Y0221243D01*
X0083840Y0221294D01*
X0083510Y0221696D01*
X0083561Y0222215D01*
X0083963Y0222545D01*
X0084482Y0222494D01*
X0084812Y0222092D01*
X0078413Y0215710D02*
X0079043Y0216340D01*
X0078839Y0214262D01*
X0077227Y0212938D01*
X0075149Y0213142D01*
X0073825Y0214754D01*
X0074029Y0216832D01*
X0075641Y0218156D01*
X0077719Y0217952D01*
X0079043Y0216340D01*
X0078064Y0216042D01*
X0077937Y0214744D01*
X0076929Y0213917D01*
X0075631Y0214044D01*
X0074804Y0215052D01*
X0074931Y0216350D01*
X0075939Y0217177D01*
X0077237Y0217050D01*
X0078064Y0216042D01*
X0077085Y0215745D01*
X0077034Y0215226D01*
X0076632Y0214896D01*
X0076113Y0214947D01*
X0075783Y0215349D01*
X0075834Y0215868D01*
X0076236Y0216198D01*
X0076755Y0216147D01*
X0077085Y0215745D01*
D15*
X0032572Y0078151D02*
X0032572Y0072214D01*
X0042572Y0072214D02*
X0042572Y0078151D01*
X0052572Y0078151D02*
X0052572Y0072214D01*
X0082572Y0072214D02*
X0082572Y0078151D01*
X0092572Y0078151D02*
X0092572Y0072214D01*
X0102572Y0072214D02*
X0102572Y0078151D01*
X0132572Y0078151D02*
X0132572Y0072214D01*
X0142572Y0072214D02*
X0142572Y0078151D01*
X0152572Y0078151D02*
X0152572Y0072214D01*
X0182572Y0072214D02*
X0182572Y0078151D01*
X0192572Y0078151D02*
X0192572Y0072214D01*
X0202572Y0072214D02*
X0202572Y0078151D01*
X0232572Y0078151D02*
X0232572Y0072214D01*
X0242572Y0072214D02*
X0242572Y0078151D01*
X0252572Y0078151D02*
X0252572Y0072214D01*
X0282572Y0072214D02*
X0282572Y0078151D01*
X0292572Y0078151D02*
X0292572Y0072214D01*
X0302572Y0072214D02*
X0302572Y0078151D01*
X0332572Y0078151D02*
X0332572Y0072214D01*
X0342572Y0072214D02*
X0342572Y0078151D01*
X0352572Y0078151D02*
X0352572Y0072214D01*
X0382572Y0072214D02*
X0382572Y0078151D01*
X0392572Y0078151D02*
X0392572Y0072214D01*
X0402572Y0072214D02*
X0402572Y0078151D01*
D16*
X0370072Y0115182D03*
X0370072Y0135182D03*
X0370072Y0155182D03*
X0370072Y0175182D03*
D17*
X0342572Y0177582D02*
X0342572Y0182782D01*
X0332572Y0182782D02*
X0332572Y0177582D01*
X0322572Y0177582D02*
X0322572Y0182782D01*
X0312572Y0182782D02*
X0312572Y0177582D01*
X0302572Y0177582D02*
X0302572Y0182782D01*
X0292572Y0182782D02*
X0292572Y0177582D01*
X0282572Y0177582D02*
X0282572Y0182782D01*
X0272572Y0182782D02*
X0272572Y0177582D01*
X0262572Y0177582D02*
X0262572Y0182782D01*
X0252572Y0182782D02*
X0252572Y0177582D01*
X0242572Y0177582D02*
X0242572Y0182782D01*
X0232572Y0182782D02*
X0232572Y0177582D01*
X0222572Y0177582D02*
X0222572Y0182782D01*
X0212572Y0182782D02*
X0212572Y0177582D01*
X0212572Y0207582D02*
X0212572Y0212782D01*
X0222572Y0212782D02*
X0222572Y0207582D01*
X0232572Y0207582D02*
X0232572Y0212782D01*
X0242572Y0212782D02*
X0242572Y0207582D01*
X0252572Y0207582D02*
X0252572Y0212782D01*
X0262572Y0212782D02*
X0262572Y0207582D01*
X0272572Y0207582D02*
X0272572Y0212782D01*
X0282572Y0212782D02*
X0282572Y0207582D01*
X0292572Y0207582D02*
X0292572Y0212782D01*
X0302572Y0212782D02*
X0302572Y0207582D01*
X0312572Y0207582D02*
X0312572Y0212782D01*
X0322572Y0212782D02*
X0322572Y0207582D01*
X0332572Y0207582D02*
X0332572Y0212782D01*
X0342572Y0212782D02*
X0342572Y0207582D01*
X0177572Y0182782D02*
X0177572Y0177582D01*
X0167572Y0177582D02*
X0167572Y0182782D01*
X0157572Y0182782D02*
X0157572Y0177582D01*
X0147572Y0177582D02*
X0147572Y0182782D01*
X0137572Y0182782D02*
X0137572Y0177582D01*
X0127572Y0177582D02*
X0127572Y0182782D01*
X0117572Y0182782D02*
X0117572Y0177582D01*
X0107572Y0177582D02*
X0107572Y0182782D01*
X0097572Y0182782D02*
X0097572Y0177582D01*
X0087572Y0177582D02*
X0087572Y0182782D01*
X0077572Y0182782D02*
X0077572Y0177582D01*
X0067572Y0177582D02*
X0067572Y0182782D01*
X0057572Y0182782D02*
X0057572Y0177582D01*
X0047572Y0177582D02*
X0047572Y0182782D01*
X0047572Y0152782D02*
X0047572Y0147582D01*
X0057572Y0147582D02*
X0057572Y0152782D01*
X0067572Y0152782D02*
X0067572Y0147582D01*
X0077572Y0147582D02*
X0077572Y0152782D01*
X0087572Y0152782D02*
X0087572Y0147582D01*
X0097572Y0147582D02*
X0097572Y0152782D01*
X0107572Y0152782D02*
X0107572Y0147582D01*
X0117572Y0147582D02*
X0117572Y0152782D01*
X0127572Y0152782D02*
X0127572Y0147582D01*
X0137572Y0147582D02*
X0137572Y0152782D01*
X0147572Y0152782D02*
X0147572Y0147582D01*
X0157572Y0147582D02*
X0157572Y0152782D01*
X0167572Y0152782D02*
X0167572Y0147582D01*
X0177572Y0147582D02*
X0177572Y0152782D01*
M02*
