G75*
%MOIN*%
%OFA0B0*%
%FSLAX25Y25*%
%IPPOS*%
%LPD*%
%AMOC8*
5,1,8,0,0,1.08239X$1,22.5*
%
%ADD10C,0.04737*%
%ADD11C,0.13398*%
%ADD12C,0.07099*%
%ADD13C,0.03950*%
%ADD14C,0.21272*%
%ADD15C,0.14580*%
%ADD16C,0.11430*%
%ADD17C,0.14186*%
%ADD18C,0.09461*%
%ADD19C,0.10249*%
%ADD20C,0.02400*%
%ADD21C,0.01600*%
%ADD22R,0.15000X0.45000*%
%ADD23R,0.22500X0.11250*%
%ADD24R,0.21250X0.11250*%
%ADD25OC8,0.07100*%
%ADD26C,0.06000*%
%ADD27C,0.06800*%
%ADD28C,0.01420*%
%ADD29R,0.02375X0.06706*%
%ADD30C,0.06737*%
%ADD31C,0.16548*%
%ADD32C,0.09855*%
%ADD33R,0.05950X0.05950*%
%ADD34R,0.03950X0.04343*%
%ADD35C,0.06000*%
%ADD36R,0.10643X0.08674*%
%ADD37R,0.13792X0.08674*%
%ADD38R,0.13005X0.02769*%
%ADD39C,0.04343*%
D10*
X0063822Y0058932D03*
X0072572Y0058932D03*
X0082572Y0075182D03*
X0092572Y0075182D03*
X0102572Y0075182D03*
X0112572Y0058932D03*
X0132572Y0075182D03*
X0142572Y0075182D03*
X0152572Y0075182D03*
X0167572Y0090182D03*
X0167572Y0100182D03*
X0167572Y0110182D03*
X0167572Y0120182D03*
X0182572Y0100182D03*
X0182572Y0075182D03*
X0192572Y0075182D03*
X0202572Y0075182D03*
X0207572Y0090182D03*
X0207572Y0100182D03*
X0207572Y0110182D03*
X0207572Y0120182D03*
X0222572Y0100182D03*
X0247572Y0100182D03*
X0247572Y0090182D03*
X0252572Y0075182D03*
X0242572Y0075182D03*
X0232572Y0075182D03*
X0222572Y0058932D03*
X0266322Y0058932D03*
X0282572Y0075182D03*
X0292572Y0075182D03*
X0302572Y0075182D03*
X0312572Y0058932D03*
X0332572Y0075182D03*
X0342572Y0075182D03*
X0352572Y0075182D03*
X0361322Y0085182D03*
X0357572Y0095182D03*
X0357572Y0105182D03*
X0357572Y0115182D03*
X0370072Y0115182D03*
X0355072Y0127682D03*
X0370072Y0135182D03*
X0362572Y0148932D03*
X0370072Y0155182D03*
X0370072Y0175182D03*
X0355072Y0175182D03*
X0355072Y0185182D03*
X0362572Y0195182D03*
X0355072Y0205182D03*
X0342572Y0210182D03*
X0332572Y0225182D03*
X0322572Y0210182D03*
X0312572Y0210182D03*
X0302572Y0210182D03*
X0292572Y0210182D03*
X0282572Y0210182D03*
X0272572Y0210182D03*
X0262572Y0210182D03*
X0252572Y0210182D03*
X0242572Y0210182D03*
X0232572Y0210182D03*
X0222572Y0210182D03*
X0212572Y0210182D03*
X0202572Y0200182D03*
X0197564Y0215165D03*
X0208822Y0242682D03*
X0218822Y0242682D03*
X0223822Y0232682D03*
X0243005Y0230112D03*
X0242572Y0245182D03*
X0242572Y0255182D03*
X0262572Y0255182D03*
X0262572Y0245182D03*
X0262071Y0230194D03*
X0272572Y0220182D03*
X0282572Y0220182D03*
X0292572Y0220182D03*
X0302572Y0180182D03*
X0312572Y0170182D03*
X0322572Y0180182D03*
X0332572Y0180182D03*
X0342572Y0180182D03*
X0327572Y0167682D03*
X0327572Y0157682D03*
X0327572Y0148932D03*
X0327572Y0120182D03*
X0327572Y0110182D03*
X0327572Y0100182D03*
X0327572Y0090182D03*
X0312572Y0093932D03*
X0287572Y0090182D03*
X0287572Y0100182D03*
X0287572Y0110182D03*
X0287572Y0120182D03*
X0266322Y0100182D03*
X0247572Y0110182D03*
X0247572Y0120182D03*
X0262572Y0170182D03*
X0272572Y0170182D03*
X0282572Y0170182D03*
X0282572Y0180182D03*
X0272572Y0180182D03*
X0262572Y0180182D03*
X0252572Y0180182D03*
X0242572Y0180182D03*
X0232572Y0180182D03*
X0232572Y0170182D03*
X0222572Y0170182D03*
X0212572Y0170182D03*
X0212572Y0180182D03*
X0222572Y0180182D03*
X0202572Y0170182D03*
X0177572Y0180182D03*
X0167572Y0180182D03*
X0157572Y0180182D03*
X0137572Y0180182D03*
X0117572Y0180182D03*
X0107572Y0180182D03*
X0097572Y0180182D03*
X0087572Y0180182D03*
X0077572Y0180182D03*
X0067572Y0180182D03*
X0057572Y0180182D03*
X0047572Y0180182D03*
X0068061Y0200182D03*
X0076255Y0215408D03*
X0084302Y0221798D03*
X0095072Y0225182D03*
X0095072Y0215182D03*
X0087068Y0200157D03*
X0107572Y0190182D03*
X0117572Y0190182D03*
X0122563Y0215632D03*
X0112563Y0215632D03*
X0132585Y0217612D03*
X0166304Y0249962D03*
X0176304Y0254962D03*
X0176304Y0244962D03*
X0188804Y0244962D03*
X0208804Y0254962D03*
X0132563Y0255632D03*
X0122635Y0255737D03*
X0112563Y0255632D03*
X0107572Y0150182D03*
X0107572Y0140182D03*
X0117572Y0140182D03*
X0117572Y0150182D03*
X0127572Y0150182D03*
X0137572Y0150182D03*
X0147572Y0150182D03*
X0157572Y0150182D03*
X0167572Y0150182D03*
X0177572Y0150182D03*
X0127572Y0120182D03*
X0127572Y0110182D03*
X0127572Y0100182D03*
X0127572Y0090182D03*
X0112572Y0091432D03*
X0087572Y0090182D03*
X0087572Y0100182D03*
X0087572Y0110182D03*
X0087572Y0120182D03*
X0097572Y0140182D03*
X0097572Y0150182D03*
X0087572Y0150182D03*
X0077572Y0150182D03*
X0067572Y0150182D03*
X0057572Y0150182D03*
X0057572Y0140182D03*
X0047572Y0140182D03*
X0047572Y0150182D03*
X0047572Y0120182D03*
X0047572Y0110182D03*
X0047572Y0100182D03*
X0047572Y0090182D03*
X0052572Y0075182D03*
X0042572Y0075182D03*
X0032572Y0075182D03*
X0062572Y0100182D03*
X0072572Y0091432D03*
X0171322Y0058932D03*
X0332572Y0245182D03*
X0355072Y0245182D03*
X0362572Y0223932D03*
X0382572Y0233932D03*
X0392572Y0233932D03*
X0392572Y0205182D03*
X0382572Y0205182D03*
X0400072Y0180182D03*
X0411322Y0180182D03*
X0402572Y0075182D03*
X0392572Y0075182D03*
X0382572Y0075182D03*
X0366322Y0058932D03*
D11*
X0342572Y0115182D03*
X0302572Y0112682D03*
X0262572Y0112682D03*
X0222572Y0112682D03*
X0182572Y0112682D03*
X0142572Y0112682D03*
X0102572Y0112682D03*
X0062572Y0112682D03*
D12*
X0370072Y0135182D03*
X0370072Y0155182D03*
X0370072Y0175182D03*
D13*
X0208244Y0225311D03*
X0202410Y0225329D03*
D14*
X0311254Y0228657D03*
D15*
X0139457Y0194134D03*
D16*
X0058677Y0169056D03*
X0302427Y0166556D03*
D17*
X0257511Y0195136D03*
D18*
X0247106Y0169965D03*
D19*
X0230291Y0249663D03*
D20*
X0068142Y0232705D02*
X0054392Y0232705D01*
X0054412Y0235788D02*
X0066912Y0235788D01*
X0064185Y0238964D02*
X0054185Y0238964D01*
X0054316Y0226380D02*
X0066816Y0226380D01*
D21*
X0063159Y0229508D02*
X0054409Y0229508D01*
D22*
X0037572Y0232682D03*
D23*
X0053822Y0249557D03*
D24*
X0054447Y0215807D03*
D25*
X0095072Y0215182D03*
X0095072Y0225182D03*
X0107572Y0190173D03*
X0117572Y0190173D03*
X0117572Y0140182D03*
X0097572Y0140182D03*
X0242572Y0245182D03*
X0242572Y0255182D03*
X0262572Y0255182D03*
X0262572Y0245182D03*
X0272572Y0220182D03*
X0292572Y0220182D03*
X0282572Y0170182D03*
X0262572Y0170182D03*
X0357572Y0115182D03*
X0357572Y0095182D03*
D26*
X0262072Y0230182D03*
X0243072Y0230182D03*
X0087072Y0200182D03*
X0068072Y0200182D03*
D27*
X0084572Y0110182D02*
X0090572Y0110182D01*
X0090572Y0100182D02*
X0084572Y0100182D01*
X0084572Y0090182D02*
X0090572Y0090182D01*
X0124572Y0090182D02*
X0130572Y0090182D01*
X0130572Y0100182D02*
X0124572Y0100182D01*
X0124572Y0110182D02*
X0130572Y0110182D01*
X0164572Y0110182D02*
X0170572Y0110182D01*
X0170572Y0100182D02*
X0164572Y0100182D01*
X0164572Y0090182D02*
X0170572Y0090182D01*
X0204572Y0090182D02*
X0210572Y0090182D01*
X0210572Y0100182D02*
X0204572Y0100182D01*
X0204572Y0110182D02*
X0210572Y0110182D01*
X0244572Y0110182D02*
X0250572Y0110182D01*
X0250572Y0100182D02*
X0244572Y0100182D01*
X0244572Y0090182D02*
X0250572Y0090182D01*
X0284572Y0090182D02*
X0290572Y0090182D01*
X0290572Y0100182D02*
X0284572Y0100182D01*
X0284572Y0110182D02*
X0290572Y0110182D01*
X0324572Y0110182D02*
X0330572Y0110182D01*
X0330572Y0100182D02*
X0324572Y0100182D01*
X0324572Y0090182D02*
X0330572Y0090182D01*
X0382572Y0202182D02*
X0382572Y0208182D01*
X0392572Y0208182D02*
X0392572Y0202182D01*
X0392572Y0230932D02*
X0392572Y0236932D01*
X0382572Y0236932D02*
X0382572Y0230932D01*
X0050572Y0110182D02*
X0044572Y0110182D01*
X0044572Y0100182D02*
X0050572Y0100182D01*
X0050572Y0090182D02*
X0044572Y0090182D01*
D28*
X0078665Y0215730D02*
X0079375Y0216440D01*
X0079145Y0214099D01*
X0077327Y0212606D01*
X0074986Y0212836D01*
X0073493Y0214654D01*
X0073723Y0216995D01*
X0075541Y0218488D01*
X0077882Y0218258D01*
X0079375Y0216440D01*
X0078272Y0216105D01*
X0078128Y0214642D01*
X0076992Y0213709D01*
X0075529Y0213853D01*
X0074596Y0214989D01*
X0074740Y0216452D01*
X0075876Y0217385D01*
X0077339Y0217241D01*
X0078272Y0216105D01*
X0077169Y0215770D01*
X0077111Y0215185D01*
X0076657Y0214812D01*
X0076072Y0214870D01*
X0075699Y0215324D01*
X0075757Y0215909D01*
X0076211Y0216282D01*
X0076796Y0216224D01*
X0077169Y0215770D01*
X0086392Y0222077D02*
X0087102Y0222787D01*
X0086872Y0220446D01*
X0085054Y0218953D01*
X0082713Y0219183D01*
X0081220Y0221001D01*
X0081450Y0223342D01*
X0083268Y0224835D01*
X0085609Y0224605D01*
X0087102Y0222787D01*
X0085999Y0222452D01*
X0085855Y0220989D01*
X0084719Y0220056D01*
X0083256Y0220200D01*
X0082323Y0221336D01*
X0082467Y0222799D01*
X0083603Y0223732D01*
X0085066Y0223588D01*
X0085999Y0222452D01*
X0084896Y0222117D01*
X0084838Y0221532D01*
X0084384Y0221159D01*
X0083799Y0221217D01*
X0083426Y0221671D01*
X0083484Y0222256D01*
X0083938Y0222629D01*
X0084523Y0222571D01*
X0084896Y0222117D01*
D29*
X0148441Y0236174D03*
X0151000Y0236174D03*
X0153559Y0236174D03*
X0156118Y0236174D03*
X0158677Y0236174D03*
X0161237Y0236174D03*
X0163796Y0236174D03*
X0166355Y0236174D03*
X0168914Y0236174D03*
X0171473Y0236174D03*
X0174032Y0236174D03*
X0176591Y0236174D03*
X0179150Y0236174D03*
X0181709Y0236174D03*
X0181709Y0207631D03*
X0179150Y0207631D03*
X0176591Y0207631D03*
X0174032Y0207631D03*
X0171473Y0207631D03*
X0168914Y0207631D03*
X0166355Y0207631D03*
X0163796Y0207631D03*
X0161237Y0207631D03*
X0158677Y0207631D03*
X0156118Y0207631D03*
X0153559Y0207631D03*
X0151000Y0207631D03*
X0148441Y0207631D03*
D30*
X0152572Y0078151D02*
X0152572Y0072214D01*
X0142572Y0072214D02*
X0142572Y0078151D01*
X0132572Y0078151D02*
X0132572Y0072214D01*
X0102572Y0072214D02*
X0102572Y0078151D01*
X0092572Y0078151D02*
X0092572Y0072214D01*
X0082572Y0072214D02*
X0082572Y0078151D01*
X0052572Y0078151D02*
X0052572Y0072214D01*
X0042572Y0072214D02*
X0042572Y0078151D01*
X0032572Y0078151D02*
X0032572Y0072214D01*
X0182572Y0072214D02*
X0182572Y0078151D01*
X0192572Y0078151D02*
X0192572Y0072214D01*
X0202572Y0072214D02*
X0202572Y0078151D01*
X0232572Y0078151D02*
X0232572Y0072214D01*
X0242572Y0072214D02*
X0242572Y0078151D01*
X0252572Y0078151D02*
X0252572Y0072214D01*
X0282572Y0072214D02*
X0282572Y0078151D01*
X0292572Y0078151D02*
X0292572Y0072214D01*
X0302572Y0072214D02*
X0302572Y0078151D01*
X0332572Y0078151D02*
X0332572Y0072214D01*
X0342572Y0072214D02*
X0342572Y0078151D01*
X0352572Y0078151D02*
X0352572Y0072214D01*
X0382572Y0072214D02*
X0382572Y0078151D01*
X0392572Y0078151D02*
X0392572Y0072214D01*
X0402572Y0072214D02*
X0402572Y0078151D01*
D31*
X0410072Y0125182D03*
X0410072Y0165182D03*
D32*
X0380072Y0185182D03*
X0380072Y0105182D03*
D33*
X0370072Y0115182D03*
X0370072Y0135182D03*
X0370072Y0155182D03*
X0370072Y0175182D03*
D34*
X0201312Y0231716D03*
X0193832Y0231716D03*
X0197572Y0239590D03*
D35*
X0212572Y0212782D02*
X0212572Y0207582D01*
X0222572Y0207582D02*
X0222572Y0212782D01*
X0232572Y0212782D02*
X0232572Y0207582D01*
X0242572Y0207582D02*
X0242572Y0212782D01*
X0252572Y0212782D02*
X0252572Y0207582D01*
X0262572Y0207582D02*
X0262572Y0212782D01*
X0272572Y0212782D02*
X0272572Y0207582D01*
X0282572Y0207582D02*
X0282572Y0212782D01*
X0292572Y0212782D02*
X0292572Y0207582D01*
X0302572Y0207582D02*
X0302572Y0212782D01*
X0312572Y0212782D02*
X0312572Y0207582D01*
X0322572Y0207582D02*
X0322572Y0212782D01*
X0332572Y0212782D02*
X0332572Y0207582D01*
X0342572Y0207582D02*
X0342572Y0212782D01*
X0342572Y0182782D02*
X0342572Y0177582D01*
X0332572Y0177582D02*
X0332572Y0182782D01*
X0322572Y0182782D02*
X0322572Y0177582D01*
X0312572Y0177582D02*
X0312572Y0182782D01*
X0302572Y0182782D02*
X0302572Y0177582D01*
X0292572Y0177582D02*
X0292572Y0182782D01*
X0282572Y0182782D02*
X0282572Y0177582D01*
X0272572Y0177582D02*
X0272572Y0182782D01*
X0262572Y0182782D02*
X0262572Y0177582D01*
X0252572Y0177582D02*
X0252572Y0182782D01*
X0242572Y0182782D02*
X0242572Y0177582D01*
X0232572Y0177582D02*
X0232572Y0182782D01*
X0222572Y0182782D02*
X0222572Y0177582D01*
X0212572Y0177582D02*
X0212572Y0182782D01*
X0177572Y0182782D02*
X0177572Y0177582D01*
X0167572Y0177582D02*
X0167572Y0182782D01*
X0157572Y0182782D02*
X0157572Y0177582D01*
X0147572Y0177582D02*
X0147572Y0182782D01*
X0137572Y0182782D02*
X0137572Y0177582D01*
X0127572Y0177582D02*
X0127572Y0182782D01*
X0117572Y0182782D02*
X0117572Y0177582D01*
X0107572Y0177582D02*
X0107572Y0182782D01*
X0097572Y0182782D02*
X0097572Y0177582D01*
X0087572Y0177582D02*
X0087572Y0182782D01*
X0077572Y0182782D02*
X0077572Y0177582D01*
X0067572Y0177582D02*
X0067572Y0182782D01*
X0057572Y0182782D02*
X0057572Y0177582D01*
X0047572Y0177582D02*
X0047572Y0182782D01*
X0047572Y0152782D02*
X0047572Y0147582D01*
X0057572Y0147582D02*
X0057572Y0152782D01*
X0067572Y0152782D02*
X0067572Y0147582D01*
X0077572Y0147582D02*
X0077572Y0152782D01*
X0087572Y0152782D02*
X0087572Y0147582D01*
X0097572Y0147582D02*
X0097572Y0152782D01*
X0107572Y0152782D02*
X0107572Y0147582D01*
X0117572Y0147582D02*
X0117572Y0152782D01*
X0127572Y0152782D02*
X0127572Y0147582D01*
X0137572Y0147582D02*
X0137572Y0152782D01*
X0147572Y0152782D02*
X0147572Y0147582D01*
X0157572Y0147582D02*
X0157572Y0152782D01*
X0167572Y0152782D02*
X0167572Y0147582D01*
X0177572Y0147582D02*
X0177572Y0152782D01*
D36*
X0035761Y0215163D03*
X0035761Y0250202D03*
D37*
X0058989Y0250202D03*
X0058989Y0215163D03*
D38*
X0059383Y0226383D03*
X0059383Y0229533D03*
X0059383Y0232682D03*
X0059383Y0235832D03*
X0059383Y0238982D03*
D39*
X0047572Y0241344D03*
X0047572Y0224021D03*
M02*
