%
M48
M72
T01C0.03200
T02C0.03937
T03C0.04000
T04C0.09843
T05C0.12598
%
T01
X150626Y204366
X150626Y214366
X160626Y214366
X170626Y214366
X170626Y204366
X180626Y214366
X190626Y214366
X200626Y214366
X210626Y214366
X220626Y214366
X230626Y214366
X230626Y244366
X220626Y244366
X210626Y244366
X200626Y244366
X190626Y244366
X180626Y244366
X170626Y244366
X160626Y244366
X160626Y254357
X170626Y254357
X150626Y244366
X140626Y244366
X130626Y244366
X120626Y244366
X110626Y244366
X100626Y244366
X80623Y233228
X80623Y223228
X100626Y214366
X110626Y214366
X120626Y214366
X130626Y214366
X140626Y214366
X140126Y264366
X140626Y279366
X140626Y289366
X120626Y289366
X120626Y279366
X121126Y264366
X260626Y274366
X270626Y274366
X280626Y274366
X290626Y274366
X300626Y274366
X310626Y274366
X320626Y274366
X330626Y274366
X330626Y284357
X320626Y284357
X310126Y294366
X310626Y309366
X310626Y319366
X320626Y319366
X340626Y319366
X290626Y319366
X290626Y309366
X291126Y294366
X340626Y274366
X350626Y274366
X360626Y274366
X370626Y274366
X380626Y274366
X390626Y274366
X390626Y244366
X380626Y244366
X370626Y244366
X360626Y244366
X350626Y244366
X340626Y244366
X330626Y244366
X320626Y244366
X310626Y244366
X310626Y234366
X300626Y244366
X290626Y244366
X280626Y244366
X270626Y244366
X260626Y244366
X330626Y234366
X370626Y144366
X390626Y144366
T02
X390626Y144366
X380626Y144366
X370626Y144366
X380626Y154366
X380626Y164366
X390626Y164366
X380626Y174366
X380626Y184366
X350626Y164366
X340626Y164366
X340626Y154366
X340626Y174366
X340626Y184366
X310626Y164366
X300626Y164366
X300626Y154366
X300626Y174366
X300626Y184366
X270626Y164366
X260626Y164366
X260626Y154366
X260626Y174366
X260626Y184366
X230626Y164366
X220626Y164366
X220626Y154366
X220626Y174366
X220626Y184366
X190626Y164366
X180626Y164366
X180626Y154366
X180626Y174366
X180626Y184366
X180626Y204366
X190626Y204366
X190626Y214366
X180626Y214366
X170626Y214366
X160626Y214366
X160626Y204366
X170626Y204366
X150626Y204366
X150626Y214366
X140626Y214366
X130626Y214366
X120626Y214366
X110626Y214366
X110626Y204366
X100626Y204366
X100626Y214366
X80639Y223228
X80639Y233228
X80639Y243464
X100626Y244366
X110626Y244366
X120626Y244366
X130626Y244366
X140626Y244366
X150626Y244366
X160626Y244366
X170626Y244366
X180626Y244366
X190626Y244366
X200626Y244366
X210626Y244366
X220626Y244366
X230626Y244366
X250626Y234366
X260626Y234366
X270626Y234366
X280626Y234366
X280626Y244366
X270626Y244366
X260626Y244366
X250626Y264366
X260626Y274366
X270626Y274366
X290626Y274366
X300626Y274366
X310626Y274366
X320626Y274366
X330626Y274366
X340626Y274366
X350626Y274366
X360626Y274366
X370626Y274366
X380626Y274366
X390626Y274366
X410626Y269366
X400626Y254366
X410626Y244366
X410626Y234366
X390626Y244366
X380626Y244366
X370626Y244366
X360626Y244366
X350626Y244366
X340626Y244366
X330626Y244366
X320626Y244366
X320626Y234366
X330626Y234366
X310626Y234366
X310626Y244366
X300626Y244366
X290626Y244366
X320626Y284366
X330626Y284366
X350626Y284366
X310125Y294378
X310626Y309366
X310626Y319366
X320626Y319366
X330390Y319366
X340626Y319366
X290626Y319366
X290626Y309366
X275626Y299366
X291060Y294296
X275626Y319366
X275626Y339366
X265626Y339366
X255626Y339366
X245626Y339366
X235626Y319366
X235626Y299366
X235626Y289366
X225626Y289366
X215626Y289366
X190626Y254366
X170626Y254366
X160626Y254366
X140122Y264341
X140626Y279366
X140626Y289366
X135617Y299816
X145639Y301796
X155617Y301740
X130617Y319816
X115617Y319816
X115617Y309816
X115617Y299816
X125617Y299816
X120626Y289366
X120626Y279366
X121116Y264366
X115617Y329816
X115617Y339816
X125617Y339816
X135689Y339921
X145617Y339816
X155617Y339816
X179359Y336645
X210626Y339366
X210626Y214366
X200626Y214366
X220626Y214366
X230626Y214366
X150626Y164366
X140626Y164366
X140626Y154366
X140626Y174366
X140626Y184366
X110626Y164366
X100626Y164366
X100626Y154366
X100626Y174366
X100626Y184366
X380626Y214366
X420626Y214366
X410626Y309366
X400626Y309366
T03
X100626Y154366
X100626Y164366
X100626Y174366
X140626Y174366
X140626Y164366
X140626Y154366
X180626Y154366
X180626Y164366
X180626Y174366
X220626Y174366
X220626Y164366
X220626Y154366
X260626Y154366
X260626Y164366
X260626Y174366
X300626Y174366
X300626Y164366
X300626Y154366
X340626Y154366
X340626Y164366
X340626Y174366
X380626Y174366
X380626Y164366
X380626Y154366
T04
X360386Y227473
X370797Y294181
X397047Y333939
X237724Y272903
X82072Y307304
X76098Y183476
T05
X125626Y164366
X165626Y164366
X205626Y164366
X245626Y164366
X285626Y164366
X325626Y164366
X365626Y164366
M30
